<svg width="55" height="47" viewBox="0 0 55 47" fill="none" xmlns="http://www.w3.org/2000/svg">
<path d="M9.51367 0.273965L0.123794 13.6881C-0.048913 13.9249 -0.0399261 14.2777 0.144585 14.5055L26.9728 46.6994C27.2231 47.0126 27.7704 47.0126 28.0207 46.6994L54.849 14.5055C55.0335 14.2777 55.0425 13.9249 54.8698 13.6881L45.4799 0.273965C45.3548 0.104411 45.146 -5.18432e-05 44.9353 0.00149078H10.0586C9.80335 -0.0159476 9.62273 0.122318 9.51367 0.273965ZM11.0438 1.3429H25.967L15.55 12.9335L11.0438 1.3429ZM29.027 1.3429H43.9502L39.4439 12.9335L29.027 1.3429ZM27.497 1.67826L38.0606 13.4156H16.9334L27.497 1.67826ZM9.89095 2.07653L14.2925 13.4156H1.92632L9.89095 2.07653ZM45.103 2.07653L53.0676 13.4156H40.7015L45.103 2.07653ZM2.11492 14.757H14.8165L25.8831 43.2829L2.11492 14.757ZM16.2417 14.757H38.7313L27.497 43.7232L16.2417 14.757ZM40.1775 14.757H52.879L29.1318 43.2621L40.1775 14.757Z" fill="white"/>
</svg>
